<?xml version="1.0" encoding="UTF-8"?>
<svg version="1.1" xmlns="http://www.w3.org/2000/svg" width="250" height="250">
<path d="M0 0 C67.65 0 135.3 0 205 0 C205 70.29 205 140.58 205 213 C137.35 213 69.7 213 0 213 C0 142.71 0 72.42 0 0 Z " fill="#FEFEFE" transform="translate(23,20)"/>
<path d="M0 0 C67.65 0 135.3 0 205 0 C205 70.29 205 140.58 205 213 C137.35 213 69.7 213 0 213 C0 142.71 0 72.42 0 0 Z M9 10 C8.90006162 12.48923006 8.86558485 14.95077552 8.87301636 17.44055176 C8.87145637 18.22882622 8.86989638 19.01710069 8.86828911 19.82926226 C8.86427593 22.49101113 8.86746998 25.15270375 8.87060547 27.81445312 C8.86925157 29.7144321 8.8674717 31.61441082 8.86529541 33.51438904 C8.86071974 38.68985825 8.86251119 43.86530763 8.8656745 49.04077721 C8.86819741 54.44421825 8.86586075 59.84765753 8.86428833 65.25109863 C8.86246643 74.32707018 8.86487347 83.4030336 8.86962891 92.47900391 C8.87507156 102.98826832 8.87330892 113.49751334 8.8678025 124.00677729 C8.86327194 133.01226038 8.86262054 142.01773762 8.86524117 151.02322149 C8.86680426 156.4094916 8.86699684 161.79575257 8.86370468 167.18202209 C8.8608268 172.24459305 8.86280012 177.30713888 8.86859894 182.36970711 C8.86992698 184.23340373 8.86953167 186.09710246 8.86733627 187.96079826 C8.8646265 190.49371064 8.86800375 193.02654116 8.87301636 195.55944824 C8.87078564 196.3068063 8.86855491 197.05416436 8.86625659 197.82416964 C8.5803887 201.19811828 8.5803887 201.19811828 10 204 C12.38838158 204.09987036 14.74790165 204.13442407 17.13684082 204.12698364 C17.89244687 204.12854363 18.64805291 204.13010362 19.42655611 204.13171089 C21.97774951 204.13572376 24.5288842 204.13253014 27.08007812 204.12939453 C28.90124039 204.13074845 30.72240238 204.13252832 32.54356384 204.13470459 C37.50416416 204.1392801 42.46474377 204.13748888 47.42534447 204.1343255 C52.6045678 204.13180251 57.7837893 204.13413927 62.9630127 204.13571167 C71.66235677 204.13753354 80.36169237 204.13512659 89.06103516 204.13037109 C99.13404726 204.12492844 109.20703914 204.12669108 119.28005075 204.1321975 C127.91186398 204.13672812 136.5436711 204.13737943 145.17548513 204.13475883 C150.33818996 204.13319578 155.50088526 204.13300306 160.66358948 204.13629532 C165.51604223 204.1391733 170.36846876 204.13719969 175.22091866 204.13140106 C177.00721251 204.13007307 178.79350856 204.13046824 180.57980156 204.13266373 C183.00761774 204.13537371 185.43534852 204.13199599 187.86315918 204.12698364 C188.93750489 204.13032973 188.93750489 204.13032973 190.03355455 204.13374341 C193.29768042 204.40034736 193.29768042 204.40034736 196 203 C196.09993838 200.51076994 196.13441515 198.04922448 196.12698364 195.55944824 C196.12854363 194.77117378 196.13010362 193.98289931 196.13171089 193.17073774 C196.13572407 190.50898887 196.13253002 187.84729625 196.12939453 185.18554688 C196.13074843 183.2855679 196.1325283 181.38558918 196.13470459 179.48561096 C196.13928026 174.31014175 196.13748881 169.13469237 196.1343255 163.95922279 C196.13180259 158.55578175 196.13413925 153.15234247 196.13571167 147.74890137 C196.13753357 138.67292982 196.13512653 129.5969664 196.13037109 120.52099609 C196.12492844 110.01173168 196.12669108 99.50248666 196.1321975 88.99322271 C196.13672806 79.98773962 196.13737946 70.98226238 196.13475883 61.97677851 C196.13319574 56.5905084 196.13300316 51.20424743 196.13629532 45.81797791 C196.1391732 40.75540695 196.13719988 35.69286112 196.13140106 30.63029289 C196.13007302 28.76659627 196.13046833 26.90289754 196.13266373 25.03920174 C196.1353735 22.50628936 196.13199625 19.97345884 196.12698364 17.44055176 C196.12921436 16.6931937 196.13144509 15.94583564 196.13374341 15.17583036 C196.4196113 11.80188172 196.4196113 11.80188172 195 9 C192.61161842 8.90012964 190.25209835 8.86557593 187.86315918 8.87301636 C187.10755313 8.87145637 186.35194709 8.86989638 185.57344389 8.86828911 C183.02225049 8.86427624 180.4711158 8.86746986 177.91992188 8.87060547 C176.09875961 8.86925155 174.27759762 8.86747168 172.45643616 8.86529541 C167.49583584 8.8607199 162.53525623 8.86251112 157.57465553 8.8656745 C152.3954322 8.86819749 147.2162107 8.86586073 142.0369873 8.86428833 C133.33764323 8.86246646 124.63830763 8.86487341 115.93896484 8.86962891 C105.86595274 8.87507156 95.79296086 8.87330892 85.71994925 8.8678025 C77.08813602 8.86327188 68.4563289 8.86262057 59.82451487 8.86524117 C54.66181004 8.86680422 49.49911474 8.86699694 44.33641052 8.86370468 C39.48395777 8.8608267 34.63153124 8.86280031 29.77908134 8.86859894 C27.99278749 8.86992693 26.20649144 8.86953176 24.42019844 8.86733627 C21.99238226 8.86462629 19.56465148 8.86800401 17.13684082 8.87301636 C16.42061035 8.87078564 15.70437987 8.86855491 14.96644545 8.86625659 C11.70231958 8.59965264 11.70231958 8.59965264 9 10 Z " fill="#000000" transform="translate(23,20)"/>
<path d="M0 0 C0 30.36 0 60.72 0 92 C-3.96 92 -7.92 92 -12 92 C-12 66.26 -12 40.52 -12 14 C-15.3 16.64 -18.6 19.28 -22 22 C-24.31900362 23.68654809 -26.64610215 25.36250584 -29 27 C-30.65 25.02 -32.3 23.04 -34 21 C-31.78732803 15.23645324 -26.19632023 11.97538271 -21.5234375 8.24853516 C-20.17432626 7.14286931 -18.87922472 5.97201618 -17.59375 4.79296875 C-11.12103076 -0.96446811 -9.85179162 0 0 0 Z " fill="#131313" transform="translate(139,82)"/>
</svg>
